<mxfile host="app.diagrams.net" modified="2024-02-25T19:24:53.645Z" agent="Mozilla/5.0 (Windows NT 10.0; Win64; x64; rv:123.0) Gecko/20100101 Firefox/123.0" etag="4tW1CICdnU3Q6MuQANyW" version="23.1.5" type="device">
  <diagram id="C5RBs43oDa-KdzZeNtuy" name="Page-1">
    <mxGraphModel dx="1434" dy="820" grid="1" gridSize="10" guides="1" tooltips="1" connect="1" arrows="1" fold="1" page="1" pageScale="1" pageWidth="827" pageHeight="1169" math="0" shadow="0">
      <root>
        <mxCell id="WIyWlLk6GJQsqaUBKTNV-0" />
        <mxCell id="WIyWlLk6GJQsqaUBKTNV-1" parent="WIyWlLk6GJQsqaUBKTNV-0" />
        <mxCell id="BqkFUiFIWT837hot8IoG-21" style="edgeStyle=orthogonalEdgeStyle;rounded=0;orthogonalLoop=1;jettySize=auto;html=1;exitX=0.5;exitY=1;exitDx=0;exitDy=0;entryX=0.5;entryY=0;entryDx=0;entryDy=0;endArrow=none;endFill=0;shape=link;" edge="1" parent="WIyWlLk6GJQsqaUBKTNV-1" source="BqkFUiFIWT837hot8IoG-0" target="BqkFUiFIWT837hot8IoG-20">
          <mxGeometry relative="1" as="geometry" />
        </mxCell>
        <mxCell id="BqkFUiFIWT837hot8IoG-47" style="edgeStyle=orthogonalEdgeStyle;rounded=0;orthogonalLoop=1;jettySize=auto;html=1;entryX=1;entryY=0.5;entryDx=0;entryDy=0;endArrow=none;endFill=0;exitX=0.25;exitY=1;exitDx=0;exitDy=0;" edge="1" parent="WIyWlLk6GJQsqaUBKTNV-1" source="BqkFUiFIWT837hot8IoG-0" target="BqkFUiFIWT837hot8IoG-46">
          <mxGeometry relative="1" as="geometry">
            <mxPoint x="269" y="430" as="sourcePoint" />
            <Array as="points">
              <mxPoint x="269" y="410" />
              <mxPoint x="269" y="480" />
            </Array>
          </mxGeometry>
        </mxCell>
        <mxCell id="BqkFUiFIWT837hot8IoG-51" style="rounded=0;orthogonalLoop=1;jettySize=auto;html=1;exitX=1;exitY=0.25;exitDx=0;exitDy=0;entryX=0;entryY=1;entryDx=0;entryDy=0;endArrow=none;endFill=0;" edge="1" parent="WIyWlLk6GJQsqaUBKTNV-1" source="BqkFUiFIWT837hot8IoG-0" target="BqkFUiFIWT837hot8IoG-50">
          <mxGeometry relative="1" as="geometry" />
        </mxCell>
        <mxCell id="BqkFUiFIWT837hot8IoG-61" style="edgeStyle=orthogonalEdgeStyle;rounded=0;orthogonalLoop=1;jettySize=auto;html=1;exitX=1;exitY=0.75;exitDx=0;exitDy=0;endArrow=none;endFill=0;entryX=0;entryY=0.5;entryDx=0;entryDy=0;" edge="1" parent="WIyWlLk6GJQsqaUBKTNV-1" source="BqkFUiFIWT837hot8IoG-0" target="BqkFUiFIWT837hot8IoG-69">
          <mxGeometry relative="1" as="geometry">
            <mxPoint x="399" y="420" as="targetPoint" />
          </mxGeometry>
        </mxCell>
        <mxCell id="BqkFUiFIWT837hot8IoG-0" value="Funcionário" style="rounded=0;whiteSpace=wrap;html=1;" vertex="1" parent="WIyWlLk6GJQsqaUBKTNV-1">
          <mxGeometry x="253" y="350" width="120" height="60" as="geometry" />
        </mxCell>
        <mxCell id="BqkFUiFIWT837hot8IoG-1" value="CPF" style="ellipse;whiteSpace=wrap;html=1;fontStyle=4;rounded=0;" vertex="1" parent="WIyWlLk6GJQsqaUBKTNV-1">
          <mxGeometry x="156" y="239" width="86" height="50" as="geometry" />
        </mxCell>
        <mxCell id="BqkFUiFIWT837hot8IoG-12" style="rounded=0;orthogonalLoop=1;jettySize=auto;html=1;exitX=1;exitY=1;exitDx=0;exitDy=0;entryX=0;entryY=0.25;entryDx=0;entryDy=0;endArrow=none;endFill=0;" edge="1" parent="WIyWlLk6GJQsqaUBKTNV-1" source="BqkFUiFIWT837hot8IoG-3" target="BqkFUiFIWT837hot8IoG-0">
          <mxGeometry relative="1" as="geometry" />
        </mxCell>
        <mxCell id="BqkFUiFIWT837hot8IoG-3" value="Nome" style="ellipse;whiteSpace=wrap;html=1;rounded=0;" vertex="1" parent="WIyWlLk6GJQsqaUBKTNV-1">
          <mxGeometry x="109" y="290" width="84" height="50" as="geometry" />
        </mxCell>
        <mxCell id="BqkFUiFIWT837hot8IoG-10" value="" style="endArrow=none;html=1;rounded=0;entryX=0.5;entryY=1;entryDx=0;entryDy=0;exitX=0;exitY=0;exitDx=0;exitDy=0;" edge="1" parent="WIyWlLk6GJQsqaUBKTNV-1" source="BqkFUiFIWT837hot8IoG-0" target="BqkFUiFIWT837hot8IoG-1">
          <mxGeometry width="50" height="50" relative="1" as="geometry">
            <mxPoint x="339" y="400" as="sourcePoint" />
            <mxPoint x="389" y="350" as="targetPoint" />
          </mxGeometry>
        </mxCell>
        <mxCell id="BqkFUiFIWT837hot8IoG-60" style="edgeStyle=orthogonalEdgeStyle;rounded=0;orthogonalLoop=1;jettySize=auto;html=1;exitX=0.5;exitY=1;exitDx=0;exitDy=0;entryX=0.25;entryY=0;entryDx=0;entryDy=0;endArrow=none;endFill=0;" edge="1" parent="WIyWlLk6GJQsqaUBKTNV-1" source="BqkFUiFIWT837hot8IoG-14" target="BqkFUiFIWT837hot8IoG-0">
          <mxGeometry relative="1" as="geometry" />
        </mxCell>
        <mxCell id="BqkFUiFIWT837hot8IoG-14" value="Nome" style="ellipse;whiteSpace=wrap;html=1;rounded=0;" vertex="1" parent="WIyWlLk6GJQsqaUBKTNV-1">
          <mxGeometry x="241" y="214" width="84" height="50" as="geometry" />
        </mxCell>
        <mxCell id="BqkFUiFIWT837hot8IoG-17" style="rounded=0;orthogonalLoop=1;jettySize=auto;html=1;exitX=1;exitY=0.5;exitDx=0;exitDy=0;entryX=0;entryY=0.5;entryDx=0;entryDy=0;endArrow=none;endFill=0;" edge="1" parent="WIyWlLk6GJQsqaUBKTNV-1" source="BqkFUiFIWT837hot8IoG-16" target="BqkFUiFIWT837hot8IoG-0">
          <mxGeometry relative="1" as="geometry" />
        </mxCell>
        <mxCell id="BqkFUiFIWT837hot8IoG-16" value="Endereço" style="ellipse;whiteSpace=wrap;html=1;rounded=0;" vertex="1" parent="WIyWlLk6GJQsqaUBKTNV-1">
          <mxGeometry x="89" y="355" width="84" height="50" as="geometry" />
        </mxCell>
        <mxCell id="BqkFUiFIWT837hot8IoG-19" style="rounded=0;orthogonalLoop=1;jettySize=auto;html=1;exitX=0.5;exitY=1;exitDx=0;exitDy=0;entryX=0.75;entryY=0;entryDx=0;entryDy=0;endArrow=none;endFill=0;startArrow=none;startFill=0;" edge="1" parent="WIyWlLk6GJQsqaUBKTNV-1" source="BqkFUiFIWT837hot8IoG-18" target="BqkFUiFIWT837hot8IoG-0">
          <mxGeometry relative="1" as="geometry" />
        </mxCell>
        <mxCell id="BqkFUiFIWT837hot8IoG-18" value="Sexo" style="ellipse;whiteSpace=wrap;html=1;rounded=0;" vertex="1" parent="WIyWlLk6GJQsqaUBKTNV-1">
          <mxGeometry x="329" y="210" width="84" height="50" as="geometry" />
        </mxCell>
        <mxCell id="BqkFUiFIWT837hot8IoG-28" style="edgeStyle=orthogonalEdgeStyle;rounded=0;orthogonalLoop=1;jettySize=auto;html=1;exitX=0.5;exitY=1;exitDx=0;exitDy=0;entryX=0.5;entryY=0;entryDx=0;entryDy=0;endArrow=none;endFill=0;" edge="1" parent="WIyWlLk6GJQsqaUBKTNV-1" source="BqkFUiFIWT837hot8IoG-20" target="BqkFUiFIWT837hot8IoG-22">
          <mxGeometry relative="1" as="geometry" />
        </mxCell>
        <mxCell id="BqkFUiFIWT837hot8IoG-20" value="aloca" style="rhombus;whiteSpace=wrap;html=1;labelPosition=center;verticalLabelPosition=middle;align=center;verticalAlign=middle;rounded=0;" vertex="1" parent="WIyWlLk6GJQsqaUBKTNV-1">
          <mxGeometry x="273" y="450" width="80" height="80" as="geometry" />
        </mxCell>
        <mxCell id="BqkFUiFIWT837hot8IoG-95" style="edgeStyle=orthogonalEdgeStyle;rounded=0;orthogonalLoop=1;jettySize=auto;html=1;exitX=1;exitY=0.5;exitDx=0;exitDy=0;entryX=0;entryY=0.5;entryDx=0;entryDy=0;endArrow=none;endFill=0;" edge="1" parent="WIyWlLk6GJQsqaUBKTNV-1" source="BqkFUiFIWT837hot8IoG-22" target="BqkFUiFIWT837hot8IoG-92">
          <mxGeometry relative="1" as="geometry" />
        </mxCell>
        <mxCell id="BqkFUiFIWT837hot8IoG-22" value="Departamentos" style="rounded=0;whiteSpace=wrap;html=1;" vertex="1" parent="WIyWlLk6GJQsqaUBKTNV-1">
          <mxGeometry x="253" y="585" width="120" height="60" as="geometry" />
        </mxCell>
        <mxCell id="BqkFUiFIWT837hot8IoG-23" value="1" style="text;html=1;align=center;verticalAlign=middle;resizable=0;points=[];autosize=1;strokeColor=none;fillColor=none;rounded=0;" vertex="1" parent="WIyWlLk6GJQsqaUBKTNV-1">
          <mxGeometry x="313" y="520" width="30" height="30" as="geometry" />
        </mxCell>
        <mxCell id="BqkFUiFIWT837hot8IoG-27" value="N" style="text;html=1;align=center;verticalAlign=middle;resizable=0;points=[];autosize=1;strokeColor=none;fillColor=none;rounded=0;" vertex="1" parent="WIyWlLk6GJQsqaUBKTNV-1">
          <mxGeometry x="313" y="430" width="30" height="30" as="geometry" />
        </mxCell>
        <mxCell id="BqkFUiFIWT837hot8IoG-43" style="rounded=0;orthogonalLoop=1;jettySize=auto;html=1;exitX=0.25;exitY=0;exitDx=0;exitDy=0;entryX=0.5;entryY=0;entryDx=0;entryDy=0;endArrow=none;endFill=0;" edge="1" parent="WIyWlLk6GJQsqaUBKTNV-1" source="BqkFUiFIWT837hot8IoG-63" target="BqkFUiFIWT837hot8IoG-40">
          <mxGeometry relative="1" as="geometry">
            <mxPoint x="574" y="515" as="sourcePoint" />
          </mxGeometry>
        </mxCell>
        <mxCell id="BqkFUiFIWT837hot8IoG-44" style="rounded=0;orthogonalLoop=1;jettySize=auto;html=1;exitX=0.75;exitY=1;exitDx=0;exitDy=0;entryX=0.5;entryY=0;entryDx=0;entryDy=0;endArrow=none;endFill=0;" edge="1" parent="WIyWlLk6GJQsqaUBKTNV-1" source="BqkFUiFIWT837hot8IoG-63" target="BqkFUiFIWT837hot8IoG-41">
          <mxGeometry relative="1" as="geometry">
            <mxPoint x="612.8908729652599" y="503.2842712474617" as="sourcePoint" />
          </mxGeometry>
        </mxCell>
        <mxCell id="BqkFUiFIWT837hot8IoG-45" style="rounded=0;orthogonalLoop=1;jettySize=auto;html=1;exitX=0.75;exitY=0;exitDx=0;exitDy=0;entryX=0.5;entryY=1;entryDx=0;entryDy=0;endArrow=none;endFill=0;" edge="1" parent="WIyWlLk6GJQsqaUBKTNV-1" source="BqkFUiFIWT837hot8IoG-63" target="BqkFUiFIWT837hot8IoG-42">
          <mxGeometry relative="1" as="geometry">
            <mxPoint x="629" y="475" as="sourcePoint" />
          </mxGeometry>
        </mxCell>
        <mxCell id="BqkFUiFIWT837hot8IoG-40" value="Sexo" style="ellipse;whiteSpace=wrap;html=1;rounded=0;" vertex="1" parent="WIyWlLk6GJQsqaUBKTNV-1">
          <mxGeometry x="539" y="260" width="84" height="50" as="geometry" />
        </mxCell>
        <mxCell id="BqkFUiFIWT837hot8IoG-41" value="Nome" style="ellipse;whiteSpace=wrap;html=1;rounded=0;" vertex="1" parent="WIyWlLk6GJQsqaUBKTNV-1">
          <mxGeometry x="639" y="480" width="84" height="50" as="geometry" />
        </mxCell>
        <mxCell id="BqkFUiFIWT837hot8IoG-42" value="Data Nascimento" style="ellipse;whiteSpace=wrap;html=1;rounded=0;" vertex="1" parent="WIyWlLk6GJQsqaUBKTNV-1">
          <mxGeometry x="639" y="260" width="84" height="50" as="geometry" />
        </mxCell>
        <mxCell id="BqkFUiFIWT837hot8IoG-49" style="edgeStyle=orthogonalEdgeStyle;rounded=0;orthogonalLoop=1;jettySize=auto;html=1;exitX=0.5;exitY=0;exitDx=0;exitDy=0;endArrow=none;endFill=0;entryX=0;entryY=0.75;entryDx=0;entryDy=0;" edge="1" parent="WIyWlLk6GJQsqaUBKTNV-1" source="BqkFUiFIWT837hot8IoG-46" target="BqkFUiFIWT837hot8IoG-0">
          <mxGeometry relative="1" as="geometry">
            <mxPoint x="229" y="410" as="targetPoint" />
            <Array as="points">
              <mxPoint x="192" y="395" />
            </Array>
          </mxGeometry>
        </mxCell>
        <mxCell id="BqkFUiFIWT837hot8IoG-46" value="supervisiona" style="rhombus;whiteSpace=wrap;html=1;labelPosition=center;verticalLabelPosition=middle;align=center;verticalAlign=middle;rounded=0;" vertex="1" parent="WIyWlLk6GJQsqaUBKTNV-1">
          <mxGeometry x="142" y="430" width="100" height="100" as="geometry" />
        </mxCell>
        <mxCell id="BqkFUiFIWT837hot8IoG-50" value="Salário" style="ellipse;whiteSpace=wrap;html=1;rounded=0;" vertex="1" parent="WIyWlLk6GJQsqaUBKTNV-1">
          <mxGeometry x="411" y="250" width="84" height="50" as="geometry" />
        </mxCell>
        <mxCell id="BqkFUiFIWT837hot8IoG-53" style="rounded=0;orthogonalLoop=1;jettySize=auto;html=1;exitX=0.5;exitY=0;exitDx=0;exitDy=0;entryX=0.25;entryY=1;entryDx=0;entryDy=0;endArrow=none;endFill=0;" edge="1" parent="WIyWlLk6GJQsqaUBKTNV-1" source="BqkFUiFIWT837hot8IoG-52" target="BqkFUiFIWT837hot8IoG-63">
          <mxGeometry relative="1" as="geometry">
            <mxPoint x="535.1091270347399" y="503.2842712474619" as="targetPoint" />
          </mxGeometry>
        </mxCell>
        <mxCell id="BqkFUiFIWT837hot8IoG-52" value="CPF" style="ellipse;whiteSpace=wrap;html=1;fontStyle=4;rounded=0;" vertex="1" parent="WIyWlLk6GJQsqaUBKTNV-1">
          <mxGeometry x="538" y="480" width="86" height="50" as="geometry" />
        </mxCell>
        <mxCell id="BqkFUiFIWT837hot8IoG-55" value="Dependente" style="rounded=0;whiteSpace=wrap;html=1;gradientColor=none;" vertex="1" parent="WIyWlLk6GJQsqaUBKTNV-1">
          <mxGeometry x="565" y="365" width="120" height="60" as="geometry" />
        </mxCell>
        <mxCell id="BqkFUiFIWT837hot8IoG-56" value="possui" style="rhombus;whiteSpace=wrap;html=1;labelPosition=center;verticalLabelPosition=middle;align=center;verticalAlign=middle;rounded=0;" vertex="1" parent="WIyWlLk6GJQsqaUBKTNV-1">
          <mxGeometry x="429" y="355" width="80" height="80" as="geometry" />
        </mxCell>
        <mxCell id="BqkFUiFIWT837hot8IoG-57" value="N" style="text;html=1;align=center;verticalAlign=middle;resizable=0;points=[];autosize=1;strokeColor=none;fillColor=none;rounded=0;" vertex="1" parent="WIyWlLk6GJQsqaUBKTNV-1">
          <mxGeometry x="495" y="360" width="30" height="30" as="geometry" />
        </mxCell>
        <mxCell id="BqkFUiFIWT837hot8IoG-58" value="1" style="text;html=1;align=center;verticalAlign=middle;resizable=0;points=[];autosize=1;strokeColor=none;fillColor=none;rounded=0;" vertex="1" parent="WIyWlLk6GJQsqaUBKTNV-1">
          <mxGeometry x="411" y="360" width="30" height="30" as="geometry" />
        </mxCell>
        <mxCell id="BqkFUiFIWT837hot8IoG-63" value="" style="rounded=0;whiteSpace=wrap;html=1;fillColor=none;" vertex="1" parent="WIyWlLk6GJQsqaUBKTNV-1">
          <mxGeometry x="560" y="360" width="130" height="70" as="geometry" />
        </mxCell>
        <mxCell id="BqkFUiFIWT837hot8IoG-68" style="edgeStyle=orthogonalEdgeStyle;rounded=0;orthogonalLoop=1;jettySize=auto;html=1;exitX=0;exitY=0.5;exitDx=0;exitDy=0;entryX=1;entryY=0.5;entryDx=0;entryDy=0;endArrow=none;endFill=0;" edge="1" parent="WIyWlLk6GJQsqaUBKTNV-1" source="BqkFUiFIWT837hot8IoG-66" target="BqkFUiFIWT837hot8IoG-63">
          <mxGeometry relative="1" as="geometry" />
        </mxCell>
        <mxCell id="BqkFUiFIWT837hot8IoG-66" value="Grau Parentesco" style="ellipse;whiteSpace=wrap;html=1;rounded=0;" vertex="1" parent="WIyWlLk6GJQsqaUBKTNV-1">
          <mxGeometry x="719" y="370" width="84" height="50" as="geometry" />
        </mxCell>
        <mxCell id="BqkFUiFIWT837hot8IoG-70" style="edgeStyle=orthogonalEdgeStyle;rounded=0;orthogonalLoop=1;jettySize=auto;html=1;exitX=1;exitY=0.5;exitDx=0;exitDy=0;entryX=0;entryY=0.5;entryDx=0;entryDy=0;shape=link;" edge="1" parent="WIyWlLk6GJQsqaUBKTNV-1" source="BqkFUiFIWT837hot8IoG-69" target="BqkFUiFIWT837hot8IoG-63">
          <mxGeometry relative="1" as="geometry" />
        </mxCell>
        <mxCell id="BqkFUiFIWT837hot8IoG-69" value="" style="rhombus;whiteSpace=wrap;html=1;labelPosition=center;verticalLabelPosition=middle;align=center;verticalAlign=middle;fillColor=none;rounded=0;" vertex="1" parent="WIyWlLk6GJQsqaUBKTNV-1">
          <mxGeometry x="422" y="348" width="94" height="94" as="geometry" />
        </mxCell>
        <mxCell id="BqkFUiFIWT837hot8IoG-72" style="edgeStyle=orthogonalEdgeStyle;rounded=0;orthogonalLoop=1;jettySize=auto;html=1;exitX=0.5;exitY=0;exitDx=0;exitDy=0;entryX=0.5;entryY=1;entryDx=0;entryDy=0;endArrow=none;endFill=0;" edge="1" parent="WIyWlLk6GJQsqaUBKTNV-1" source="BqkFUiFIWT837hot8IoG-71" target="BqkFUiFIWT837hot8IoG-22">
          <mxGeometry relative="1" as="geometry" />
        </mxCell>
        <mxCell id="BqkFUiFIWT837hot8IoG-71" value="Sigla" style="ellipse;whiteSpace=wrap;html=1;rounded=0;" vertex="1" parent="WIyWlLk6GJQsqaUBKTNV-1">
          <mxGeometry x="271" y="695" width="84" height="50" as="geometry" />
        </mxCell>
        <mxCell id="BqkFUiFIWT837hot8IoG-74" style="rounded=0;orthogonalLoop=1;jettySize=auto;html=1;exitX=1;exitY=0;exitDx=0;exitDy=0;entryX=0.25;entryY=1;entryDx=0;entryDy=0;endArrow=none;endFill=0;" edge="1" parent="WIyWlLk6GJQsqaUBKTNV-1" source="BqkFUiFIWT837hot8IoG-73" target="BqkFUiFIWT837hot8IoG-22">
          <mxGeometry relative="1" as="geometry" />
        </mxCell>
        <mxCell id="BqkFUiFIWT837hot8IoG-73" value="Locais" style="ellipse;whiteSpace=wrap;html=1;rounded=0;" vertex="1" parent="WIyWlLk6GJQsqaUBKTNV-1">
          <mxGeometry x="156" y="695" width="84" height="50" as="geometry" />
        </mxCell>
        <mxCell id="BqkFUiFIWT837hot8IoG-78" style="rounded=0;orthogonalLoop=1;jettySize=auto;html=1;exitX=1;exitY=0;exitDx=0;exitDy=0;entryX=0;entryY=0.5;entryDx=0;entryDy=0;endArrow=none;endFill=0;" edge="1" parent="WIyWlLk6GJQsqaUBKTNV-1" source="BqkFUiFIWT837hot8IoG-75" target="BqkFUiFIWT837hot8IoG-73">
          <mxGeometry relative="1" as="geometry" />
        </mxCell>
        <mxCell id="BqkFUiFIWT837hot8IoG-75" value="Cidade" style="ellipse;whiteSpace=wrap;html=1;rounded=0;" vertex="1" parent="WIyWlLk6GJQsqaUBKTNV-1">
          <mxGeometry x="25" y="725" width="84" height="50" as="geometry" />
        </mxCell>
        <mxCell id="BqkFUiFIWT837hot8IoG-79" style="rounded=0;orthogonalLoop=1;jettySize=auto;html=1;exitX=1;exitY=0;exitDx=0;exitDy=0;entryX=0;entryY=1;entryDx=0;entryDy=0;endArrow=none;endFill=0;" edge="1" parent="WIyWlLk6GJQsqaUBKTNV-1" source="BqkFUiFIWT837hot8IoG-76" target="BqkFUiFIWT837hot8IoG-73">
          <mxGeometry relative="1" as="geometry" />
        </mxCell>
        <mxCell id="BqkFUiFIWT837hot8IoG-76" value="Estado" style="ellipse;whiteSpace=wrap;html=1;rounded=0;" vertex="1" parent="WIyWlLk6GJQsqaUBKTNV-1">
          <mxGeometry x="72" y="775" width="84" height="50" as="geometry" />
        </mxCell>
        <mxCell id="BqkFUiFIWT837hot8IoG-80" style="rounded=0;orthogonalLoop=1;jettySize=auto;html=1;exitX=0.5;exitY=0;exitDx=0;exitDy=0;entryX=0.5;entryY=1;entryDx=0;entryDy=0;endArrow=none;endFill=0;" edge="1" parent="WIyWlLk6GJQsqaUBKTNV-1" source="BqkFUiFIWT837hot8IoG-77" target="BqkFUiFIWT837hot8IoG-73">
          <mxGeometry relative="1" as="geometry" />
        </mxCell>
        <mxCell id="BqkFUiFIWT837hot8IoG-77" value="País" style="ellipse;whiteSpace=wrap;html=1;rounded=0;" vertex="1" parent="WIyWlLk6GJQsqaUBKTNV-1">
          <mxGeometry x="169" y="775" width="84" height="50" as="geometry" />
        </mxCell>
        <mxCell id="BqkFUiFIWT837hot8IoG-84" value="Projeto" style="rounded=0;whiteSpace=wrap;html=1;" vertex="1" parent="WIyWlLk6GJQsqaUBKTNV-1">
          <mxGeometry x="575" y="585" width="120" height="60" as="geometry" />
        </mxCell>
        <mxCell id="BqkFUiFIWT837hot8IoG-103" style="edgeStyle=orthogonalEdgeStyle;orthogonalLoop=1;jettySize=auto;html=1;exitX=0.5;exitY=1;exitDx=0;exitDy=0;endArrow=none;endFill=0;entryX=0.5;entryY=0;entryDx=0;entryDy=0;" edge="1" parent="WIyWlLk6GJQsqaUBKTNV-1" source="BqkFUiFIWT837hot8IoG-85" target="BqkFUiFIWT837hot8IoG-105">
          <mxGeometry relative="1" as="geometry">
            <mxPoint x="635" y="710" as="targetPoint" />
          </mxGeometry>
        </mxCell>
        <mxCell id="BqkFUiFIWT837hot8IoG-108" style="orthogonalLoop=1;jettySize=auto;html=1;exitX=0;exitY=1;exitDx=0;exitDy=0;entryX=0.5;entryY=0;entryDx=0;entryDy=0;endArrow=none;endFill=0;" edge="1" parent="WIyWlLk6GJQsqaUBKTNV-1" source="BqkFUiFIWT837hot8IoG-85" target="BqkFUiFIWT837hot8IoG-107">
          <mxGeometry relative="1" as="geometry" />
        </mxCell>
        <mxCell id="BqkFUiFIWT837hot8IoG-109" style="orthogonalLoop=1;jettySize=auto;html=1;exitX=1;exitY=1;exitDx=0;exitDy=0;entryX=0.5;entryY=0;entryDx=0;entryDy=0;endArrow=none;endFill=0;" edge="1" parent="WIyWlLk6GJQsqaUBKTNV-1" source="BqkFUiFIWT837hot8IoG-85" target="BqkFUiFIWT837hot8IoG-106">
          <mxGeometry relative="1" as="geometry" />
        </mxCell>
        <mxCell id="BqkFUiFIWT837hot8IoG-85" value="" style="rounded=0;whiteSpace=wrap;html=1;fillColor=none;" vertex="1" parent="WIyWlLk6GJQsqaUBKTNV-1">
          <mxGeometry x="570" y="580" width="130" height="70" as="geometry" />
        </mxCell>
        <mxCell id="BqkFUiFIWT837hot8IoG-94" style="edgeStyle=orthogonalEdgeStyle;rounded=0;orthogonalLoop=1;jettySize=auto;html=1;exitX=1;exitY=0.5;exitDx=0;exitDy=0;entryX=0;entryY=0.5;entryDx=0;entryDy=0;endArrow=none;endFill=0;" edge="1" parent="WIyWlLk6GJQsqaUBKTNV-1" source="BqkFUiFIWT837hot8IoG-92" target="BqkFUiFIWT837hot8IoG-85">
          <mxGeometry relative="1" as="geometry" />
        </mxCell>
        <mxCell id="BqkFUiFIWT837hot8IoG-92" value="" style="rhombus;whiteSpace=wrap;html=1;labelPosition=center;verticalLabelPosition=middle;align=center;verticalAlign=middle;rounded=0;" vertex="1" parent="WIyWlLk6GJQsqaUBKTNV-1">
          <mxGeometry x="413.5" y="558" width="114" height="114" as="geometry" />
        </mxCell>
        <mxCell id="BqkFUiFIWT837hot8IoG-93" value="desenvolve" style="rhombus;whiteSpace=wrap;html=1;labelPosition=center;verticalLabelPosition=middle;align=center;verticalAlign=middle;rounded=0;" vertex="1" parent="WIyWlLk6GJQsqaUBKTNV-1">
          <mxGeometry x="422.5" y="567" width="96" height="96" as="geometry" />
        </mxCell>
        <mxCell id="BqkFUiFIWT837hot8IoG-105" value="Sigla" style="ellipse;whiteSpace=wrap;html=1;rounded=0;" vertex="1" parent="WIyWlLk6GJQsqaUBKTNV-1">
          <mxGeometry x="593" y="695" width="84" height="50" as="geometry" />
        </mxCell>
        <mxCell id="BqkFUiFIWT837hot8IoG-106" value="Nome" style="ellipse;whiteSpace=wrap;html=1;rounded=0;" vertex="1" parent="WIyWlLk6GJQsqaUBKTNV-1">
          <mxGeometry x="695" y="690" width="84" height="50" as="geometry" />
        </mxCell>
        <mxCell id="BqkFUiFIWT837hot8IoG-107" value="Data Conclusão" style="ellipse;whiteSpace=wrap;html=1;rounded=0;" vertex="1" parent="WIyWlLk6GJQsqaUBKTNV-1">
          <mxGeometry x="486" y="690" width="84" height="50" as="geometry" />
        </mxCell>
      </root>
    </mxGraphModel>
  </diagram>
</mxfile>
